<mxfile host="app.diagrams.net" agent="Mozilla/5.0 (Windows NT 10.0; Win64; x64) AppleWebKit/537.36 (KHTML, like Gecko) Chrome/130.0.0.0 Safari/537.36" version="24.8.4">
  <diagram name="Page-1" id="LxDWiAEFKMDTajcgZDYq">
    <mxGraphModel dx="3046" dy="948" grid="1" gridSize="10" guides="1" tooltips="1" connect="1" arrows="1" fold="1" page="1" pageScale="1" pageWidth="827" pageHeight="1169" math="0" shadow="0">
      <root>
        <mxCell id="0" />
        <mxCell id="1" parent="0" />
        <mxCell id="z-pK6J4As9Oslm9gUAI6-3" value="" style="edgeStyle=orthogonalEdgeStyle;rounded=0;orthogonalLoop=1;jettySize=auto;html=1;" edge="1" parent="1" source="z-pK6J4As9Oslm9gUAI6-1" target="z-pK6J4As9Oslm9gUAI6-2">
          <mxGeometry relative="1" as="geometry" />
        </mxCell>
        <mxCell id="z-pK6J4As9Oslm9gUAI6-1" value="start" style="ellipse;whiteSpace=wrap;html=1;" vertex="1" parent="1">
          <mxGeometry x="354" y="40" width="120" height="80" as="geometry" />
        </mxCell>
        <mxCell id="z-pK6J4As9Oslm9gUAI6-8" value="" style="edgeStyle=orthogonalEdgeStyle;rounded=0;orthogonalLoop=1;jettySize=auto;html=1;" edge="1" parent="1" source="z-pK6J4As9Oslm9gUAI6-2" target="z-pK6J4As9Oslm9gUAI6-7">
          <mxGeometry relative="1" as="geometry" />
        </mxCell>
        <mxCell id="z-pK6J4As9Oslm9gUAI6-2" value="long long n,k;&amp;nbsp;&lt;div&gt;const long long limit_1 = 1000000,&amp;nbsp;&lt;div&gt;limit_2 = 10000000000;&amp;nbsp;&lt;div&gt;cin &amp;gt;&amp;gt; n &amp;gt;&amp;gt; k;&lt;/div&gt;&lt;/div&gt;&lt;/div&gt;" style="shape=parallelogram;perimeter=parallelogramPerimeter;whiteSpace=wrap;html=1;fixedSize=1;" vertex="1" parent="1">
          <mxGeometry x="304.5" y="160" width="219" height="70" as="geometry" />
        </mxCell>
        <mxCell id="z-pK6J4As9Oslm9gUAI6-13" value="" style="edgeStyle=orthogonalEdgeStyle;rounded=0;orthogonalLoop=1;jettySize=auto;html=1;" edge="1" parent="1" source="z-pK6J4As9Oslm9gUAI6-7" target="z-pK6J4As9Oslm9gUAI6-12">
          <mxGeometry relative="1" as="geometry" />
        </mxCell>
        <mxCell id="z-pK6J4As9Oslm9gUAI6-14" value="TRUE" style="edgeLabel;html=1;align=center;verticalAlign=middle;resizable=0;points=[];" vertex="1" connectable="0" parent="z-pK6J4As9Oslm9gUAI6-13">
          <mxGeometry x="-0.1491" y="-1" relative="1" as="geometry">
            <mxPoint as="offset" />
          </mxGeometry>
        </mxCell>
        <mxCell id="z-pK6J4As9Oslm9gUAI6-16" value="" style="edgeStyle=orthogonalEdgeStyle;rounded=0;orthogonalLoop=1;jettySize=auto;html=1;" edge="1" parent="1" source="z-pK6J4As9Oslm9gUAI6-7" target="z-pK6J4As9Oslm9gUAI6-15">
          <mxGeometry relative="1" as="geometry" />
        </mxCell>
        <mxCell id="z-pK6J4As9Oslm9gUAI6-17" value="FALSE" style="edgeLabel;html=1;align=center;verticalAlign=middle;resizable=0;points=[];" vertex="1" connectable="0" parent="z-pK6J4As9Oslm9gUAI6-16">
          <mxGeometry x="-0.2129" y="2" relative="1" as="geometry">
            <mxPoint x="4" as="offset" />
          </mxGeometry>
        </mxCell>
        <mxCell id="z-pK6J4As9Oslm9gUAI6-7" value="if(n&amp;lt;1 || n&amp;gt;limit_1 || k&amp;lt;1 || k&amp;gt;limit_2)" style="shape=hexagon;perimeter=hexagonPerimeter2;whiteSpace=wrap;html=1;fixedSize=1;" vertex="1" parent="1">
          <mxGeometry x="354" y="270" width="120" height="80" as="geometry" />
        </mxCell>
        <mxCell id="z-pK6J4As9Oslm9gUAI6-12" value="END" style="rounded=1;whiteSpace=wrap;html=1;" vertex="1" parent="1">
          <mxGeometry x="154" y="280" width="120" height="60" as="geometry" />
        </mxCell>
        <mxCell id="z-pK6J4As9Oslm9gUAI6-20" value="" style="edgeStyle=orthogonalEdgeStyle;rounded=0;orthogonalLoop=1;jettySize=auto;html=1;" edge="1" parent="1" source="z-pK6J4As9Oslm9gUAI6-15" target="z-pK6J4As9Oslm9gUAI6-19">
          <mxGeometry relative="1" as="geometry" />
        </mxCell>
        <mxCell id="z-pK6J4As9Oslm9gUAI6-15" value="long long a[n];" style="whiteSpace=wrap;html=1;" vertex="1" parent="1">
          <mxGeometry x="554" y="280" width="120" height="60" as="geometry" />
        </mxCell>
        <mxCell id="z-pK6J4As9Oslm9gUAI6-22" value="" style="edgeStyle=orthogonalEdgeStyle;rounded=0;orthogonalLoop=1;jettySize=auto;html=1;" edge="1" parent="1" source="z-pK6J4As9Oslm9gUAI6-19" target="z-pK6J4As9Oslm9gUAI6-21">
          <mxGeometry relative="1" as="geometry" />
        </mxCell>
        <mxCell id="z-pK6J4As9Oslm9gUAI6-19" value="for (int i = 0; i &amp;lt; n; i++)&lt;div&gt;cin &amp;gt;&amp;gt; a[i];&lt;/div&gt;" style="shape=parallelogram;perimeter=parallelogramPerimeter;whiteSpace=wrap;html=1;fixedSize=1;" vertex="1" parent="1">
          <mxGeometry x="536" y="380" width="156" height="50" as="geometry" />
        </mxCell>
        <mxCell id="z-pK6J4As9Oslm9gUAI6-23" style="edgeStyle=orthogonalEdgeStyle;rounded=0;orthogonalLoop=1;jettySize=auto;html=1;entryX=0.5;entryY=1;entryDx=0;entryDy=0;" edge="1" parent="1" source="z-pK6J4As9Oslm9gUAI6-21" target="z-pK6J4As9Oslm9gUAI6-12">
          <mxGeometry relative="1" as="geometry">
            <Array as="points">
              <mxPoint x="214" y="495" />
            </Array>
          </mxGeometry>
        </mxCell>
        <mxCell id="z-pK6J4As9Oslm9gUAI6-24" value="TRUE" style="edgeLabel;html=1;align=center;verticalAlign=middle;resizable=0;points=[];" vertex="1" connectable="0" parent="z-pK6J4As9Oslm9gUAI6-23">
          <mxGeometry x="-0.7067" y="-2" relative="1" as="geometry">
            <mxPoint x="-83" y="2" as="offset" />
          </mxGeometry>
        </mxCell>
        <mxCell id="z-pK6J4As9Oslm9gUAI6-26" value="" style="edgeStyle=orthogonalEdgeStyle;rounded=0;orthogonalLoop=1;jettySize=auto;html=1;" edge="1" parent="1" source="z-pK6J4As9Oslm9gUAI6-21" target="z-pK6J4As9Oslm9gUAI6-25">
          <mxGeometry relative="1" as="geometry" />
        </mxCell>
        <mxCell id="z-pK6J4As9Oslm9gUAI6-21" value="if (a[i]&amp;lt;1 || a[i]&amp;gt;limit_2)" style="shape=hexagon;perimeter=hexagonPerimeter2;whiteSpace=wrap;html=1;fixedSize=1;" vertex="1" parent="1">
          <mxGeometry x="556" y="470" width="116" height="50" as="geometry" />
        </mxCell>
        <mxCell id="z-pK6J4As9Oslm9gUAI6-28" value="" style="edgeStyle=orthogonalEdgeStyle;rounded=0;orthogonalLoop=1;jettySize=auto;html=1;" edge="1" parent="1" source="z-pK6J4As9Oslm9gUAI6-25" target="z-pK6J4As9Oslm9gUAI6-27">
          <mxGeometry relative="1" as="geometry" />
        </mxCell>
        <mxCell id="z-pK6J4As9Oslm9gUAI6-25" value="long long current_count = 0;&amp;nbsp;&lt;div&gt;long long max_count = 0;&amp;nbsp;&lt;div&gt;for (int i = 0; i &amp;lt; n; i++)&lt;/div&gt;&lt;/div&gt;" style="shape=parallelogram;perimeter=parallelogramPerimeter;whiteSpace=wrap;html=1;fixedSize=1;" vertex="1" parent="1">
          <mxGeometry x="514.5" y="560" width="199" height="65" as="geometry" />
        </mxCell>
        <mxCell id="z-pK6J4As9Oslm9gUAI6-31" value="" style="edgeStyle=orthogonalEdgeStyle;rounded=0;orthogonalLoop=1;jettySize=auto;html=1;" edge="1" parent="1" source="z-pK6J4As9Oslm9gUAI6-27" target="z-pK6J4As9Oslm9gUAI6-30">
          <mxGeometry relative="1" as="geometry" />
        </mxCell>
        <mxCell id="z-pK6J4As9Oslm9gUAI6-36" value="TRUE" style="edgeLabel;html=1;align=center;verticalAlign=middle;resizable=0;points=[];" vertex="1" connectable="0" parent="z-pK6J4As9Oslm9gUAI6-31">
          <mxGeometry x="-0.397" y="2" relative="1" as="geometry">
            <mxPoint x="-9" y="-2" as="offset" />
          </mxGeometry>
        </mxCell>
        <mxCell id="z-pK6J4As9Oslm9gUAI6-33" value="" style="edgeStyle=orthogonalEdgeStyle;rounded=0;orthogonalLoop=1;jettySize=auto;html=1;" edge="1" parent="1" source="z-pK6J4As9Oslm9gUAI6-27">
          <mxGeometry relative="1" as="geometry">
            <mxPoint x="729.9999999999998" y="681.3103448275863" as="targetPoint" />
          </mxGeometry>
        </mxCell>
        <mxCell id="z-pK6J4As9Oslm9gUAI6-35" value="FALSE" style="edgeLabel;html=1;align=center;verticalAlign=middle;resizable=0;points=[];" vertex="1" connectable="0" parent="z-pK6J4As9Oslm9gUAI6-33">
          <mxGeometry x="0.0377" relative="1" as="geometry">
            <mxPoint x="-5" as="offset" />
          </mxGeometry>
        </mxCell>
        <mxCell id="z-pK6J4As9Oslm9gUAI6-27" value="if (a[i]&gt;=k)" style="shape=hexagon;perimeter=hexagonPerimeter2;whiteSpace=wrap;html=1;fixedSize=1;" vertex="1" parent="1">
          <mxGeometry x="566" y="660" width="96" height="42.5" as="geometry" />
        </mxCell>
        <mxCell id="z-pK6J4As9Oslm9gUAI6-48" value="" style="edgeStyle=orthogonalEdgeStyle;rounded=0;orthogonalLoop=1;jettySize=auto;html=1;" edge="1" parent="1" source="z-pK6J4As9Oslm9gUAI6-30" target="z-pK6J4As9Oslm9gUAI6-47">
          <mxGeometry relative="1" as="geometry" />
        </mxCell>
        <mxCell id="z-pK6J4As9Oslm9gUAI6-30" value="current_count++;" style="whiteSpace=wrap;html=1;" vertex="1" parent="1">
          <mxGeometry x="378" y="651.25" width="120" height="60" as="geometry" />
        </mxCell>
        <mxCell id="z-pK6J4As9Oslm9gUAI6-40" value="" style="edgeStyle=orthogonalEdgeStyle;rounded=0;orthogonalLoop=1;jettySize=auto;html=1;" edge="1" parent="1" source="z-pK6J4As9Oslm9gUAI6-37" target="z-pK6J4As9Oslm9gUAI6-39">
          <mxGeometry relative="1" as="geometry" />
        </mxCell>
        <mxCell id="z-pK6J4As9Oslm9gUAI6-41" value="TRUE" style="edgeLabel;html=1;align=center;verticalAlign=middle;resizable=0;points=[];" vertex="1" connectable="0" parent="z-pK6J4As9Oslm9gUAI6-40">
          <mxGeometry x="-0.1833" relative="1" as="geometry">
            <mxPoint as="offset" />
          </mxGeometry>
        </mxCell>
        <mxCell id="z-pK6J4As9Oslm9gUAI6-45" value="" style="edgeStyle=orthogonalEdgeStyle;rounded=0;orthogonalLoop=1;jettySize=auto;html=1;" edge="1" parent="1" source="z-pK6J4As9Oslm9gUAI6-37" target="z-pK6J4As9Oslm9gUAI6-44">
          <mxGeometry relative="1" as="geometry" />
        </mxCell>
        <mxCell id="z-pK6J4As9Oslm9gUAI6-46" value="FALSE" style="edgeLabel;html=1;align=center;verticalAlign=middle;resizable=0;points=[];" vertex="1" connectable="0" parent="z-pK6J4As9Oslm9gUAI6-45">
          <mxGeometry x="0.0053" y="-3" relative="1" as="geometry">
            <mxPoint x="9" y="3" as="offset" />
          </mxGeometry>
        </mxCell>
        <mxCell id="z-pK6J4As9Oslm9gUAI6-37" value="if (current_count&amp;gt;max_count)" style="shape=hexagon;perimeter=hexagonPerimeter2;whiteSpace=wrap;html=1;fixedSize=1;" vertex="1" parent="1">
          <mxGeometry x="685.5" y="740" width="179" height="50" as="geometry" />
        </mxCell>
        <mxCell id="z-pK6J4As9Oslm9gUAI6-39" value="max_count = current_count;" style="whiteSpace=wrap;html=1;" vertex="1" parent="1">
          <mxGeometry x="715" y="830" width="120" height="60" as="geometry" />
        </mxCell>
        <mxCell id="z-pK6J4As9Oslm9gUAI6-43" value="" style="edgeStyle=orthogonalEdgeStyle;rounded=0;orthogonalLoop=1;jettySize=auto;html=1;" edge="1" parent="1" source="z-pK6J4As9Oslm9gUAI6-42" target="z-pK6J4As9Oslm9gUAI6-37">
          <mxGeometry relative="1" as="geometry" />
        </mxCell>
        <mxCell id="z-pK6J4As9Oslm9gUAI6-42" value="else" style="shape=hexagon;perimeter=hexagonPerimeter2;whiteSpace=wrap;html=1;fixedSize=1;" vertex="1" parent="1">
          <mxGeometry x="730" y="656.25" width="90" height="50" as="geometry" />
        </mxCell>
        <mxCell id="z-pK6J4As9Oslm9gUAI6-49" style="edgeStyle=orthogonalEdgeStyle;rounded=0;orthogonalLoop=1;jettySize=auto;html=1;entryX=0.5;entryY=1;entryDx=0;entryDy=0;" edge="1" parent="1" source="z-pK6J4As9Oslm9gUAI6-44" target="z-pK6J4As9Oslm9gUAI6-47">
          <mxGeometry relative="1" as="geometry" />
        </mxCell>
        <mxCell id="z-pK6J4As9Oslm9gUAI6-44" value="current_count = 0;" style="whiteSpace=wrap;html=1;" vertex="1" parent="1">
          <mxGeometry x="378" y="735" width="120" height="60" as="geometry" />
        </mxCell>
        <mxCell id="z-pK6J4As9Oslm9gUAI6-51" value="" style="edgeStyle=orthogonalEdgeStyle;rounded=0;orthogonalLoop=1;jettySize=auto;html=1;" edge="1" parent="1" source="z-pK6J4As9Oslm9gUAI6-47" target="z-pK6J4As9Oslm9gUAI6-50">
          <mxGeometry relative="1" as="geometry" />
        </mxCell>
        <mxCell id="z-pK6J4As9Oslm9gUAI6-52" value="TRUE" style="edgeLabel;html=1;align=center;verticalAlign=middle;resizable=0;points=[];" vertex="1" connectable="0" parent="z-pK6J4As9Oslm9gUAI6-51">
          <mxGeometry x="-0.0948" y="1" relative="1" as="geometry">
            <mxPoint as="offset" />
          </mxGeometry>
        </mxCell>
        <mxCell id="z-pK6J4As9Oslm9gUAI6-54" value="" style="edgeStyle=orthogonalEdgeStyle;rounded=0;orthogonalLoop=1;jettySize=auto;html=1;" edge="1" parent="1" source="z-pK6J4As9Oslm9gUAI6-47" target="z-pK6J4As9Oslm9gUAI6-53">
          <mxGeometry relative="1" as="geometry" />
        </mxCell>
        <mxCell id="z-pK6J4As9Oslm9gUAI6-47" value="if (current_count &amp;gt; max_count)" style="shape=hexagon;perimeter=hexagonPerimeter2;whiteSpace=wrap;html=1;fixedSize=1;" vertex="1" parent="1">
          <mxGeometry x="154" y="680" width="120" height="80" as="geometry" />
        </mxCell>
        <mxCell id="z-pK6J4As9Oslm9gUAI6-55" style="edgeStyle=orthogonalEdgeStyle;rounded=0;orthogonalLoop=1;jettySize=auto;html=1;" edge="1" parent="1" source="z-pK6J4As9Oslm9gUAI6-50" target="z-pK6J4As9Oslm9gUAI6-53">
          <mxGeometry relative="1" as="geometry">
            <Array as="points">
              <mxPoint x="14" y="660" />
              <mxPoint x="123" y="660" />
            </Array>
          </mxGeometry>
        </mxCell>
        <mxCell id="z-pK6J4As9Oslm9gUAI6-50" value="max_count = current_count;" style="whiteSpace=wrap;html=1;" vertex="1" parent="1">
          <mxGeometry x="-46" y="690" width="120" height="60" as="geometry" />
        </mxCell>
        <mxCell id="z-pK6J4As9Oslm9gUAI6-56" style="edgeStyle=orthogonalEdgeStyle;rounded=0;orthogonalLoop=1;jettySize=auto;html=1;entryX=0;entryY=0.5;entryDx=0;entryDy=0;" edge="1" parent="1" source="z-pK6J4As9Oslm9gUAI6-53" target="z-pK6J4As9Oslm9gUAI6-12">
          <mxGeometry relative="1" as="geometry" />
        </mxCell>
        <mxCell id="z-pK6J4As9Oslm9gUAI6-53" value="cout &amp;lt;&amp;lt; max_count;" style="rhombus;whiteSpace=wrap;html=1;" vertex="1" parent="1">
          <mxGeometry x="40" y="560" width="166" height="80" as="geometry" />
        </mxCell>
      </root>
    </mxGraphModel>
  </diagram>
</mxfile>
